<svg xmlns="http://www.w3.org/2000/svg" style="display: none">

  <symbol id="arrow" viewbox="0 0 24 24">
    <path style="fill:#FFF" d="M0 7.33l2.829-2.83 9.175 9.339 9.167-9.339 2.829 2.83-11.996 12.17z"/>
  </symbol>

  <symbol id="phone" viewbox="0 0 24 24">
    <path d="M20 22.621l-3.521-6.795c-.008.004-1.974.97-2.064 1.011-2.24 1.086-6.799-7.82-4.609-8.994l2.083-1.026-3.493-6.817-2.106 1.039c-7.202 3.755 4.233 25.982 11.6 22.615.121-.055 2.102-1.029 2.11-1.033z"/>
  </symbol>

  <symbol id="fax" viewbox="0 0 24 24">
    <path d="M23 3v17h-3.229c-.604 1.396-2.793 4-4.041 4h-11.73v-4h-3v-17h3v-3h16v3h3zm-18 0h14v-2h-14v2zm14 14h-14v6h10.271c1.386 0 1.562-1.885 1.109-2.698.677.186 2.62-.113 2.62-1.531v-1.771zm-11-4v1h2v-1h-2zm2-1v-1h-2v1h2zm1 1v1h2v-1h-2zm2-1v-1h-2v1h2zm1 1v1h2v-1h-2zm2-1v-1h-2v1h2zm3-6h-14v3h14v-3zm-3 12h-8v1h8v-1zm-2 2h-6v1h6v-1z"/>
  </symbol>

  <symbol id="facebook" viewbox="0 0 24 24">
    <path d="M22.675 0h-21.35c-.732 0-1.325.593-1.325 1.325v21.351c0 .731.593 1.324 1.325 1.324h11.495v-9.294h-3.128v-3.622h3.128v-2.671c0-3.1 1.893-4.788 4.659-4.788 1.325 0 2.463.099 2.795.143v3.24l-1.918.001c-1.504 0-1.795.715-1.795 1.763v2.313h3.587l-.467 3.622h-3.12v9.293h6.116c.73 0 1.323-.593 1.323-1.325v-21.35c0-.732-.593-1.325-1.325-1.325z"/>
  </symbol>

  <symbol id="email" viewbox="0 0 24 24">
    <path d="M12 12.713l-11.985-9.713h23.97l-11.985 9.713zm0 2.574l-12-9.725v15.438h24v-15.438l-12 9.725z"/>
  </symbol>

  <symbol id="pin" viewbox="0 0 24 24">
    <path d="M12 0c-4.198 0-8 3.403-8 7.602 0 4.198 3.469 9.21 8 16.398 4.531-7.188 8-12.2 8-16.398 0-4.199-3.801-7.602-8-7.602zm0 11c-1.657 0-3-1.343-3-3s1.343-3 3-3 3 1.343 3 3-1.343 3-3 3z"/>
  </symbol>

</svg>